<?xml version="1.0" encoding="UTF-8" standalone="no"?>
<!-- Generator: Adobe Illustrator 12.0.0, SVG Export Plug-In . SVG Version: 6.00 Build 51448)  -->

<svg
   xmlns:dc="http://purl.org/dc/elements/1.1/"
   xmlns:cc="http://creativecommons.org/ns#"
   xmlns:rdf="http://www.w3.org/1999/02/22-rdf-syntax-ns#"
   xmlns:svg="http://www.w3.org/2000/svg"
   xmlns="http://www.w3.org/2000/svg"
   xmlns:sodipodi="http://sodipodi.sourceforge.net/DTD/sodipodi-0.dtd"
   xmlns:inkscape="http://www.inkscape.org/namespaces/inkscape"
   height="137.112"
   id="Layer_1"
   inkscape:version="0.48.2 r9819"
   sodipodi:docname="round_blue_play_button_pressed.svg"
   sodipodi:version="0.32"
   space="preserve"
   style="overflow:visible;enable-background:new 0 0 137.152 137.112;"
   version="1.1"
   viewBox="0 0 137.152 137.112"
   width="137.152"
   inkscape:export-filename="D:\GR8DAN\My Pictures\Graphics\Buttons\large_round_blue_play_button_pressed.png"
   inkscape:export-xdpi="39.369999"
   inkscape:export-ydpi="39.369999">
  <metadata
     id="metadata3001">
    <rdf:RDF>
      <cc:Work
         rdf:about="">
        <dc:title></dc:title>
        <dc:description />
        <dc:subject>
          <rdf:Bag>
            <rdf:li>button</rdf:li>
          </rdf:Bag>
        </dc:subject>
        <dc:publisher>
          <cc:Agent
             rdf:about="http://www.openclipart.org/">
            <dc:title>Open Clip Art Library</dc:title>
          </cc:Agent>
        </dc:publisher>
        <dc:creator>
          <cc:Agent>
            <dc:title>Architetto Francesco Rollandin</dc:title>
          </cc:Agent>
        </dc:creator>
        <dc:rights>
          <cc:Agent>
            <dc:title>Architetto Francesco Rollandin</dc:title>
          </cc:Agent>
        </dc:rights>
        <dc:date />
        <dc:format>image/svg+xml</dc:format>
        <dc:type
           rdf:resource="http://purl.org/dc/dcmitype/StillImage" />
        <cc:license
           rdf:resource="http://web.resource.org/cc/PublicDomain" />
        <dc:language>en</dc:language>
      </cc:Work>
      <cc:License
         rdf:about="http://web.resource.org/cc/PublicDomain">
        <cc:permits
           rdf:resource="http://web.resource.org/cc/Reproduction" />
        <cc:permits
           rdf:resource="http://web.resource.org/cc/Distribution" />
        <cc:permits
           rdf:resource="http://web.resource.org/cc/DerivativeWorks" />
      </cc:License>
    </rdf:RDF>
  </metadata>
  <defs
     id="defs23" />
  <sodipodi:namedview
     bordercolor="#666666"
     borderopacity="1.0"
     id="base"
     inkscape:current-layer="g3"
     inkscape:cx="21.598956"
     inkscape:cy="68.556"
     inkscape:pageopacity="0.0"
     inkscape:pageshadow="2"
     inkscape:window-height="702"
     inkscape:window-width="1283"
     inkscape:window-x="1696"
     inkscape:window-y="146"
     inkscape:zoom="2.6255908"
     pagecolor="#ffffff"
     showgrid="false"
     inkscape:window-maximized="0" />
  <g
     id="g3">
    <path
       d="m 137.15192,68.534 c 0,34.94 -27.408,65.096 -62.231,68.297 C 40.08592,140.034 7.4889204,115.538 1.1169204,81.088 -5.2540796,46.647 16.24192,11.951 49.99792,2.485 c 33.766,-9.468 70.253,8.916 82.705,41.693 2.949,7.763 4.449,16.052 4.449,24.356"
       id="path5"
       style="fill:#5471af"
       inkscape:connector-curvature="0" />
    <radialGradient
       cx="68.5908"
       cy="68.5327"
       gradientUnits="userSpaceOnUse"
       id="XMLID_2_"
       r="63.7393"
       gradientTransform="matrix(-0.94622131,0,0,0.94622131,133.84405,3.6856152)">
      <stop
         id="stop8"
         offset="0"
         style="stop-color:#D4E4F7" />
      <stop
         id="stop10"
         offset="1"
         style="stop-color:#7FB5F7" />
    </radialGradient>
    <path
       d="m 133.32242,68.129203 c 0,32.626577 -25.65977,60.785927 -58.261576,63.774987 C 42.447814,134.89512 11.930032,112.02103 5.9644732,79.851991 -1.497348e-4,47.691362 20.124716,15.292619 51.727571,6.4533714 83.339787,-2.3877436 117.49945,14.779033 129.1572,45.385838 c 2.76089,7.249003 4.16522,14.98918 4.16522,22.743365"
       id="path5-1"
       style="fill:#808080;fill-opacity:0.84126988;overflow:visible"
       inkscape:connector-curvature="0" />
    <path
       d="m 129.25298,68.533947 c 0,32.866993 -27.44325,60.310253 -60.311193,60.310253 -32.867944,0 -60.3111998,-27.44326 -60.3111998,-60.310253 0,-32.86889 27.4432558,-60.3121469 60.3111998,-60.3121469 32.867943,-9.462e-4 60.311193,27.4432569 60.311193,60.3121469"
       id="path12"
       style="fill:url(#XMLID_2_)"
       inkscape:connector-curvature="0" />
    <path
       d="M 125.41875,47.534753 C 129.49586,76.073824 111.30861,104.07134 83.210008,112.5233 53.407738,121.48812 20.677963,105.92359 9.2219673,77.539772 14.085975,111.61881 48.934824,134.97487 83.086149,127.03389 118.34716,118.83383 138.80638,80.666605 125.41875,47.534753"
       id="path14"
       style="fill:#68a0f2"
       inkscape:connector-curvature="0" />
    <path
       d="M 106.6118,39.855336 C 98.269916,41.580297 88.666716,29.764831 81.435693,26.758687 67.924598,21.141917 51.046849,23.749703 38.805584,31.39801 25.857491,39.487256 16.648866,55.026102 15.232373,70.280136 c -0.0048,0.04353 -0.0048,0.05204 -9.46e-4,0.02271 0.955683,-9.237012 0.31036,-17.91954 3.828411,-26.84903 5.827777,-14.799847 18.431445,-26.38822 33.627759,-31.044575 15.712951,-4.812482 32.895384,-1.750509 46.43108,7.423107 4.179463,2.834878 20.268063,17.3783 7.493123,20.022989"
       id="path16"
       style="fill:#b3e7fc"
       inkscape:connector-curvature="0" />
    <path
       d="m 53.007882,42.212271 c 0,16.302286 0,32.602731 0,48.905016 0,4.979518 -2.021057,14.234153 5.179467,14.583593 6.059531,0.29703 12.910029,-7.833888 17.180339,-11.242765 C 82.441839,88.815583 89.515991,83.17397 96.591045,77.529598 103.40792,72.092131 98.357538,68.055181 93.313539,64.015474 85.713895,57.929705 78.113343,51.841177 70.5137,45.754488 68.067158,43.794867 65.621526,41.835245 63.174984,39.876543 60.714806,37.904967 53.007882,37.594149 53.007882,42.212271"
       id="path18"
       style="fill:#ffffff"
       inkscape:connector-curvature="0" />
    <path
       d="m 63.316813,38.929377 c 11.680849,9.354871 23.35988,18.708822 35.039821,28.063692 7.223256,5.785987 -0.869146,10.88229 -5.336753,14.442897 -7.906029,6.307388 -15.813877,12.616615 -23.719905,18.923084 -1.939232,1.54489 -3.877556,3.0907 -5.815878,4.63835 -3.557532,2.83875 -11.298095,1.89342 -11.298095,-3.73624 0,-6.625566 0,-13.252047 0,-19.87761 0,-9.972827 0,-19.945653 0,-29.918481 0,-2.862647 0,-5.725294 0,-8.587942 0,-5.205733 7.573279,-6.798443 11.13081,-3.94775 M 62.296739,103.82678 C 73.859397,94.603409 85.422965,85.380039 96.983808,76.158506 103.13698,71.247958 95.867361,67.121811 91.999807,64.02375 84.374707,57.916831 76.748699,51.808072 69.120871,45.700233 c -2.151975,-1.72421 -4.303948,-3.44934 -6.456833,-5.172629 -2.065605,-1.65524 -8.835187,-2.09296 -8.835187,1.85571 0,6.625561 0,13.252043 0,19.877606 0,9.617869 0,19.237578 0,28.856367 0,2.949088 0,5.900015 0,8.850939 9.09e-4,4.286164 4.820349,6.785574 8.467888,3.858554"
       id="path20"
       style="fill:#5471af"
       inkscape:connector-curvature="0" />
  </g>
</svg>
